<?xml version="1.0" standalone="no"?>
<!DOCTYPE svg PUBLIC "-//W3C//DTD SVG 20010904//EN"
 "http://www.w3.org/TR/2001/REC-SVG-20010904/DTD/svg10.dtd">
<svg version="1.0" xmlns="http://www.w3.org/2000/svg"
 width="400.000000pt" height="98.000000pt" viewBox="0 0 400.000000 98.000000"
 preserveAspectRatio="xMidYMid meet">

<g transform="translate(0.000000,98.000000) scale(0.100000,-0.100000)"
fill="#000000" stroke="none">
<path d="M1962 288 c3 -64 5 -73 23 -75 11 -2 14 0 8 3 -9 4 -13 29 -13 75 0
41 -4 69 -10 69 -7 0 -10 -27 -8 -72z"/>
<path d="M3020 337 c0 -31 -9 -38 -32 -26 -29 16 -68 -13 -68 -50 0 -38 18
-51 69 -49 l41 1 0 74 c0 40 -2 73 -5 73 -3 0 -5 -10 -5 -23z m-15 -77 c0 -32
-2 -35 -30 -35 -24 0 -31 5 -33 23 -6 38 5 54 35 50 25 -3 28 -7 28 -38z"/>
<path d="M1820 240 c0 -47 4 -80 10 -80 6 0 10 13 10 28 0 26 3 28 30 24 38
-5 60 12 60 49 0 38 -39 66 -69 49 -14 -7 -21 -7 -21 0 0 5 -4 10 -10 10 -6 0
-10 -33 -10 -80z m88 23 c2 -25 -1 -33 -18 -38 -26 -8 -50 10 -50 40 0 29 9
37 40 33 20 -2 26 -9 28 -35z"/>
<path d="M2031 294 c-25 -32 -25 -34 -6 -62 13 -17 24 -21 60 -20 l45 2 0 53
c0 29 -4 53 -10 53 -5 0 -10 -5 -10 -10 0 -7 -6 -7 -19 0 -29 15 -37 13 -60
-16z m69 -9 c15 -18 10 -45 -12 -59 -35 -22 -74 27 -48 59 16 19 44 19 60 0z"/>
<path d="M2160 285 c0 -47 32 -80 61 -64 26 13 37 4 22 -19 -7 -11 -22 -16
-42 -16 -37 2 -39 -1 -10 -17 16 -8 27 -8 45 2 22 11 24 18 23 83 -2 56 -3 63
-8 32 -11 -72 -71 -72 -71 0 0 19 -4 34 -10 34 -5 0 -10 -16 -10 -35z"/>
<path d="M2308 298 c-22 -22 -23 -37 -2 -67 13 -18 23 -22 46 -17 24 5 29 3
26 -12 -3 -13 -13 -17 -43 -16 -35 2 -37 0 -20 -12 24 -18 35 -18 63 2 19 13
22 24 22 77 l0 62 -37 1 c-23 0 -43 -6 -55 -18z m67 -33 c0 -27 -3 -30 -30
-30 -21 0 -31 5 -33 18 -6 33 6 49 35 45 24 -3 28 -8 28 -33z"/>
<path d="M2440 265 c0 -30 5 -55 10 -55 6 0 10 18 10 40 0 26 6 43 18 50 16
11 16 11 0 6 -10 -3 -18 -1 -18 4 0 6 -4 10 -10 10 -5 0 -10 -25 -10 -55z"/>
<path d="M2530 300 c-22 -22 -25 -42 -10 -71 12 -22 68 -27 88 -7 20 20 14 65
-10 82 -30 21 -44 20 -68 -4z m68 -17 c12 -23 -2 -63 -22 -63 -31 0 -46 13
-46 39 0 15 3 31 7 34 13 14 52 7 61 -10z"/>
<path d="M2652 268 l3 -53 48 -1 47 -2 0 54 c0 30 -4 54 -10 54 -5 0 -10 -17
-10 -39 0 -41 -20 -67 -45 -57 -10 4 -15 19 -15 51 0 25 -5 45 -11 45 -6 0 -9
-21 -7 -52z"/>
<path d="M2791 265 l1 -60 11 45 c10 38 16 45 37 45 22 0 25 -5 28 -42 4 -57
22 -55 22 2 0 50 -25 74 -58 56 -13 -7 -23 -6 -30 1 -9 9 -12 -3 -11 -47z"/>
</g>
</svg>
